<svg width="30" height="30" viewBox="0 0 30 30" fill="none" xmlns="http://www.w3.org/2000/svg">
    <path d="M11.4165 28.8211L17.9542 17.5L23.105 26.4206C20.6253 28.2105 17.6437 29.1715 14.5854 29.1667C13.4975 29.1667 12.4373 29.0471 11.4165 28.8211ZM8.5917 27.8834C6.71803 27.0362 5.04408 25.8035 3.67909 24.2656C2.3141 22.7278 1.28878 20.9193 0.670033 18.9583H13.744L8.5917 27.8819V27.8834ZM0.0750325 16.0417C-0.133663 13.996 0.0941952 11.9293 0.743546 9.97827C1.3929 8.0272 2.44895 6.23617 3.84191 4.72356L10.3738 16.0417H0.0750325ZM6.06732 2.74606C8.54666 0.956509 11.5277 -0.00451905 14.5854 1.59768e-05C15.6734 1.59768e-05 16.7336 0.119599 17.7544 0.345641L11.2167 11.6667L6.06732 2.74606ZM20.5792 1.28335C22.4529 2.13047 24.1268 3.3632 25.4918 4.90107C26.8568 6.43894 27.8821 8.24738 28.5009 10.2083H15.4269L20.5792 1.28481V1.28335ZM29.0959 13.125C29.3046 15.1707 29.0767 17.2374 28.4274 19.1884C27.778 21.1395 26.7219 22.9305 25.329 24.4431L18.7971 13.125H29.0988H29.0959Z" fill="white"/>
    </svg>