<svg width="50" height="50" viewBox="0 0 50 50" fill="none" xmlns="http://www.w3.org/2000/svg">
    <rect x="0.5" y="0.5" width="49" height="49" rx="5.5" fill="#6D4382" stroke="black"/>
    <g clip-path="url(#clip0)">
    <path d="M41.686 10.1854L34.2079 23.2293C32.4096 21.2488 30.2128 19.9398 27.6177 19.3024L32.8421 10.1854C33.1836 9.5935 33.6844 9.0813 34.3445 8.64878C35.0047 8.21626 35.6421 8 36.2567 8H40.6616C41.2762 8 41.686 8.21626 41.8909 8.64878C42.0957 9.0813 42.0275 9.5935 41.686 10.1854ZM35.4372 32.0732C35.4372 34.0537 34.9535 35.8805 33.986 37.5537C33.0185 39.2268 31.6925 40.5528 30.0079 41.5317C28.3234 42.5106 26.4909 43 24.5104 43C22.5299 43 20.6974 42.5106 19.0128 41.5317C17.3283 40.5528 16.0023 39.2268 15.0348 37.5537C14.0673 35.8805 13.5836 34.0537 13.5836 32.0732C13.5836 30.0927 14.0673 28.2602 15.0348 26.5756C16.0023 24.8911 17.3283 23.5594 19.0128 22.5805C20.6974 21.6016 22.5299 21.1122 24.5104 21.1122C26.4909 21.1122 28.3234 21.6016 30.0079 22.5805C31.6925 23.5594 33.0185 24.8911 33.986 26.5756C34.9535 28.2602 35.4372 30.0927 35.4372 32.0732ZM27.7884 36.4439H26.6957V29.8537C26.6957 28.6472 26.2689 27.6171 25.4153 26.7634C24.5616 25.9098 23.5315 25.4829 22.325 25.4829V25.5171V25.4829C22.0063 25.4829 21.7445 25.5911 21.5396 25.8073C21.3348 26.0236 21.2323 26.2854 21.2323 26.5927C21.2323 26.9 21.3348 27.1618 21.5396 27.378C21.7445 27.5943 22.0063 27.7024 22.325 27.7024V27.6683C22.9396 27.6911 23.4575 27.913 23.8787 28.3341C24.2998 28.7553 24.5104 29.2618 24.5104 29.8537V36.4439H23.4177C23.1218 36.4439 22.8657 36.552 22.6494 36.7683C22.4331 36.9846 22.325 37.2407 22.325 37.5366C22.325 37.8325 22.4331 38.0886 22.6494 38.3049C22.8657 38.5211 23.1218 38.6293 23.4177 38.6293H27.7884C28.0844 38.6293 28.3405 38.5211 28.5567 38.3049C28.773 38.0886 28.8811 37.8325 28.8811 37.5366C28.8811 37.2407 28.773 36.9846 28.5567 36.7683C28.3405 36.552 28.0844 36.4439 27.7884 36.4439ZM7.33477 10.1854C6.99331 9.5935 6.92501 9.0813 7.12989 8.64878C7.33477 8.21626 7.74453 8 8.35916 8H12.764C13.3787 8 14.0161 8.21626 14.6762 8.64878C15.3364 9.0813 15.8372 9.5935 16.1787 10.1854L21.4031 19.3024C18.8079 19.9398 16.6112 21.2488 14.8128 23.2293L7.33477 10.1854Z" fill="#FFE7AB"/>
    </g>
    <defs>
    <clipPath id="clip0">
    <rect width="35.04" height="35" fill="white" transform="translate(7 8)"/>
    </clipPath>
    </defs>
    </svg>