<svg width="35" height="35" viewBox="0 0 35 35" fill="none" xmlns="http://www.w3.org/2000/svg">
    <path d="M16.4062 2.1875H18.5938V7.6125H16.4062V2.1875Z" fill="white"/>
    <path d="M23.7202 9.72348L27.556 5.8877L29.1026 7.43535L25.2668 11.2711L23.7202 9.72348Z" fill="white"/>
    <path d="M27.3875 16.4062H32.8125V18.5938H27.3875V16.4062Z" fill="white"/>
    <path d="M23.7267 25.2689L25.2732 23.7223L29.109 27.5592L27.5625 29.1046L23.7267 25.2689Z" fill="white"/>
    <path d="M16.4062 27.3875H18.5938V32.8125H16.4062V27.3875Z" fill="white"/>
    <path d="M5.90295 27.5647L9.73874 23.7289L11.2853 25.2754L7.44952 29.1123L5.90295 27.5647Z" fill="white"/>
    <path d="M2.1875 16.4062H7.6125V18.5938H2.1875V16.4062Z" fill="white"/>
    <path d="M5.89526 7.44073L7.44401 5.89526L11.2798 9.73214L9.73323 11.2787L5.89526 7.44073Z" fill="white"/>
    <path d="M17.5 13.125C18.3653 13.125 19.2112 13.3816 19.9306 13.8623C20.6501 14.3431 21.2108 15.0263 21.542 15.8258C21.8731 16.6252 21.9597 17.5049 21.7909 18.3535C21.6221 19.2022 21.2054 19.9817 20.5936 20.5936C19.9817 21.2054 19.2022 21.6221 18.3535 21.7909C17.5049 21.9597 16.6252 21.8731 15.8258 21.542C15.0263 21.2108 14.3431 20.6501 13.8623 19.9306C13.3816 19.2112 13.125 18.3653 13.125 17.5C13.125 16.3397 13.5859 15.2269 14.4064 14.4064C15.2269 13.5859 16.3397 13.125 17.5 13.125ZM17.5 10.9375C16.2021 10.9375 14.9333 11.3224 13.8541 12.0435C12.7749 12.7646 11.9337 13.7895 11.437 14.9886C10.9403 16.1878 10.8104 17.5073 11.0636 18.7803C11.3168 20.0533 11.9418 21.2226 12.8596 22.1404C13.7774 23.0582 14.9467 23.6832 16.2197 23.9364C17.4927 24.1896 18.8122 24.0597 20.0114 23.563C21.2105 23.0663 22.2354 22.2251 22.9565 21.1459C23.6776 20.0667 24.0625 18.7979 24.0625 17.5C24.0625 15.7595 23.3711 14.0903 22.1404 12.8596C20.9097 11.6289 19.2405 10.9375 17.5 10.9375Z" fill="white"/>
</svg>