<svg width="35" height="35" viewBox="0 0 35 35" fill="none" xmlns="http://www.w3.org/2000/svg">
    <path d="M17.5 1.45837C24.3395 1.45837 29.8958 8.64796 29.8958 17.5C29.8958 26.3667 24.3395 33.5417 17.5 33.5417C10.6604 33.5417 5.10413 26.3667 5.10413 17.5C5.10413 8.64796 10.6604 1.45837 17.5 1.45837ZM17.5 4.37504C12.2645 4.37504 8.02079 10.2521 8.02079 17.5C8.02079 24.748 12.2645 30.625 17.5 30.625C22.7354 30.625 26.9791 24.748 26.9791 17.5C26.9791 10.2521 22.7354 4.37504 17.5 4.37504ZM12.0895 14.9917L16.8145 10.2521L18.3604 11.798L13.6354 16.5375L12.0895 14.9917ZM12.6875 21.3063L20.9416 13.0521L22.4875 14.5834L14.2333 22.8521L12.6875 21.3063Z" fill="white"/>
    </svg>