<svg width="102" height="54" viewBox="0 0 102 54" fill="none" xmlns="http://www.w3.org/2000/svg">
<path d="M40.3467 52.4408C28.4057 49.2237 17.9833 39.8479 13.3562 28.1603C11.6936 23.9607 10.68 19.0084 10.68 15.0843C10.68 12.8946 10.9225 12.2233 11.9503 11.567C13.0972 10.8346 13.7755 10.9427 18.9304 12.6795C28.904 16.0397 36.2113 17.0408 50.7651 17.0408C65.3189 17.0408 72.6263 16.0397 82.5998 12.6795C87.7548 10.9427 88.433 10.8346 89.5799 11.567C90.6344 12.2403 90.8485 12.8795 90.8404 15.3292C90.8241 20.2252 89.3271 25.8869 86.552 31.5478C84.3188 36.1031 83.1472 37.6801 78.7766 42.0136C70.4438 50.2756 62.274 53.5974 50.4468 53.5324C46.2802 53.5094 42.9959 53.1545 40.3467 52.4408ZM61.5364 46.4574C65.5707 45.1867 70.403 42.4211 74.1731 39.2252C75.0925 38.4458 75.7276 37.6939 75.5845 37.5544C75.4414 37.4148 73.2918 37.7036 70.8077 38.1961C67.3457 38.8825 62.6657 39.0916 50.7651 39.0916C38.8645 39.0916 34.1846 38.8825 30.7226 38.1961C28.2384 37.7036 26.0849 37.4188 25.9369 37.5632C25.7889 37.7076 26.6781 38.6799 27.9129 39.7237C37.4594 47.7942 49.5834 50.2222 61.5364 46.4574ZM67.9848 29.5504C71.0899 29.093 75.7901 28.1314 78.4295 27.4136L83.2284 26.1085L84.2562 22.2812C84.8215 20.1762 85.1764 18.3462 85.0448 18.2146C84.9132 18.083 82.4182 18.6144 79.5003 19.3955C70.1453 21.8997 63.3289 22.6785 50.7651 22.6785C38.2013 22.6785 31.3849 21.8997 22.0299 19.3955C19.1121 18.6144 16.6171 18.083 16.4855 18.2146C16.3539 18.3462 16.7087 20.171 17.274 22.2698L18.3018 26.0856L21.9716 27.1249C35.0659 30.8333 52.8967 31.7732 67.9848 29.5504ZM0.555127 15.8097C-0.240727 14.3226 -0.20855 13.6657 0.831767 10.1626C2.44727 4.72261 7.76934 0.495947 13.0037 0.495947C15.7994 0.495947 16.8904 1.22137 16.8904 3.08034C16.8904 4.72272 15.9774 5.36717 12.9399 5.86883C9.58987 6.42209 6.40873 9.49083 5.89757 12.6623C5.38329 15.8531 4.86299 16.5639 2.89765 16.7606C1.62292 16.8881 0.996108 16.6336 0.555127 15.8097ZM96.6089 16.1912C96.2363 15.8186 95.9314 14.9212 95.9314 14.1971C95.9314 10.3707 92.4813 6.51022 88.4703 5.84855C85.5176 5.36146 84.6398 4.70855 84.6398 2.99943C84.6398 -1.73193 94.2029 0.212142 98.4739 5.81177C99.9436 7.73857 101.577 12.0992 101.577 14.0952C101.577 16.3376 98.186 17.7683 96.6089 16.1912Z" fill="#062851"/>
</svg>
