<svg width="52" height="52" viewBox="0 0 52 52" fill="none" xmlns="http://www.w3.org/2000/svg">
<path d="M50.375 49.5625L43.3875 47.125L48.6688 44.6875L50.375 49.5625Z" fill="#F7B600"/>
<path d="M30.1438 29.5751L39.9751 19.6626L41.6001 24.2126L30.1438 29.5751Z" fill="#FFDD7D"/>
<path d="M41.6002 24.2124L43.3877 29.3312L21.6127 39.4874L20.5564 39.1624L30.1439 29.5749L41.6002 24.2124Z" fill="#F7B600"/>
<path d="M45.0938 34.4501L28.8438 42.0063L21.6125 39.4875L43.3875 29.3313L45.0938 34.4501Z" fill="#FFDD7D"/>
<path d="M46.8813 39.5687L36.1563 44.6062L28.8438 42.0062L45.0938 34.45L46.8813 39.5687Z" fill="#F7B600"/>
<path d="M46.8814 39.5688L48.6689 44.6876L43.3877 47.1251L36.1564 44.6063L46.8814 39.5688Z" fill="#FFDD7D"/>
<path d="M26.0811 25.3501C20.6374 30.7126 17.7936 36.7251 19.7436 38.6751C21.7749 40.6251 27.7874 37.8626 33.3124 32.4189C38.7561 27.0564 41.5999 21.0439 39.6499 19.0939C37.6186 17.1439 31.6061 19.9876 26.0811 25.3501Z" fill="#493816"/>
<path d="M32.9061 11.7813C34.2061 9.91251 32.8249 9.10001 31.0374 9.42501C32.7436 7.39376 31.6874 5.93126 29.0061 6.50001C28.1936 6.66251 29.3311 8.04376 30.0624 8.04376C27.8686 9.66876 29.0874 11.4563 31.4436 11.05C29.3311 13.8938 32.9061 13.1625 34.5311 13.325C34.9374 15.4375 32.4999 17.875 33.3124 17.875C35.0999 17.875 38.0249 11.1313 32.9061 11.7813Z" fill="#42ADE2"/>
<path d="M15.8438 15.6813C17.0625 16.2501 20.475 10.8876 16.25 10.8063C18.6875 8.61259 18.3625 7.55634 15.1125 7.47509C18.85 3.73759 12.9188 2.43759 12.35 4.38759C12.1875 4.95634 14.1375 3.90009 14.7875 4.95634C15.5188 6.17509 10.2375 9.34384 15.6813 9.10009C13.65 11.1313 13.5688 12.1063 16.7375 12.4313C16.3313 13.0813 15.0313 15.3563 15.8438 15.6813Z" fill="#FF8736"/>
<path d="M14.4624 28.3563L13.2437 27.3C13.2437 27.3 12.1062 29.0063 11.2937 29.6563C10.6437 26.7313 10.8062 25.025 7.4749 26.975C9.34365 21.9375 6.25615 23.8063 3.2499 25.1875C3.41241 23.8875 3.24991 24.05 1.94991 23.6438C0.812407 27.95 3.8999 26.65 6.3374 25.2688C4.8749 29.1688 6.41865 28.925 9.50615 27.625C9.5874 29.25 10.0749 31.1188 11.0499 31.2813C12.1874 31.6063 14.4624 28.3563 14.4624 28.3563Z" fill="#ED4C5C"/>
<path d="M23.5624 16.3313C25.0249 18.2812 27.3812 19.3375 29.0874 21.0437C30.8749 22.8312 31.9312 27.7062 31.9312 27.7062C31.9312 27.7062 31.2812 22.5875 29.5749 20.6375C28.0312 18.85 25.7562 17.55 24.5374 15.5188C22.4249 11.7812 24.3749 6.90625 27.1374 4.0625C26.5687 3.575 25.7562 2.925 25.3499 2.4375C22.6687 5.76875 20.3937 12.1875 23.5624 16.3313Z" fill="#C28FEF"/>
<path d="M21.0439 20.4751C23.1564 22.0189 24.7002 24.2939 26.1627 26.4064C27.4627 28.2751 31.6064 30.6314 31.6064 30.6314C31.6064 30.6314 27.7064 27.9501 26.4877 26.0001C25.0252 23.5626 23.5627 21.0439 21.2877 19.2564C16.7377 15.7626 10.1564 16.0876 5.0377 17.9564C5.3627 18.6876 5.93144 20.2314 5.93144 20.2314C5.93144 20.2314 16.7377 17.3064 21.0439 20.4751Z" fill="#FF8736"/>
<path d="M12.025 20.0689C13.4062 21.8564 14.0562 24.0502 15.1125 26.0814C16.0875 27.9502 17.3875 29.7377 19.2563 30.7127C21.3688 31.7689 26 31.4439 26 31.4439C26 31.4439 21.3688 31.3627 19.4188 30.0627C17.4688 28.7627 16.4125 26.4877 15.6812 24.3752C14.2187 20.3127 12.4312 15.9252 8.20625 14.1377C7.9625 14.8689 7.39375 16.4127 7.39375 16.4127C7.39375 16.4127 9.75 17.0627 12.025 20.0689Z" fill="#42ADE2"/>
<path d="M49.3921 11.6391L47.0943 9.34058L44.7958 11.6383L47.0935 13.9377L49.3921 11.6391Z" fill="#42ADE2"/>
<path d="M46.1719 18.8476L43.8749 16.5498L41.5772 18.8476L43.8749 21.1453L46.1719 18.8476Z" fill="#FF8736"/>
<path d="M40.334 7.98037L38.0362 5.68262L35.7385 7.98037L38.0362 10.2781L40.334 7.98037Z" fill="#ED4C5C"/>
<path d="M15.271 35.5029L12.9732 33.2043L10.6755 35.5029L12.9732 37.8007L15.271 35.5029Z" fill="#C28FEF"/>
<path d="M20.3916 43.3793L18.0939 41.0815L15.7953 43.3801L18.0939 45.6779L20.3916 43.3793Z" fill="#ED4C5C"/>
<path d="M10.3359 45.1806L8.03819 42.8821L5.74044 45.1806L8.03819 47.4784L10.3359 45.1806Z" fill="#FF8736"/>
<path d="M8.06104 34.7189L5.76329 32.4211L3.46553 34.7189L5.76329 37.0175L8.06104 34.7189Z" fill="#42ADE2"/>
<path d="M11.8979 10.4187L9.6002 8.12012L7.30164 10.4187L9.59939 12.7164L11.8979 10.4187Z" fill="#42ADE2"/>
<path d="M36.5269 24.206L34.2283 21.9082L31.9305 24.206L34.2283 26.5045L36.5269 24.206Z" fill="#ED4C5C"/>
</svg>
